# File created by Blade
# Date/Time:  Wed Sep 24 20:21:23 2014
# Frame Rate: 120.000 fps
#------------------------------------------------------
:FULLY-SPECIFIED
:DEGREES
925
root -7.410384 33.126614 -6.467695 12.730080 15.255664 23.748063
Spine 18.866115 -15.378464 -31.665216
Head -38.529755 0.022939 14.934475
LeftShoulder 11.841918 -5.225149 13.124242
LeftArm 36.686681 -18.290137 -91.694371
LeftForeArm -75.510979 0.000000 6.217424
LeftHand -31.878865 0.000000 14.163719
LeftHandThumb1 -26.253704 0.000000 33.147579
RightShoulder -17.156241 18.806788 -31.556684
RightArm -11.089474 2.287598 32.211016
RightForeArm -21.219317 0.000000 10.419557
RightHand -7.144359 -0.000000 11.441555
RightHandThumb1 -24.326973 -0.000000 -32.862282
LeftUpLeg -108.771829 29.913792 -27.741046
LeftLeg 112.288721 -0.000000 -0.000000
LeftFoot 17.354182 18.607926 -21.530807
LeftToeBase 8.766002 -0.000000 -0.000000
RightUpLeg -19.890384 -3.497891 -16.319463
RightLeg 30.748956 -0.000000 -0.000000
RightFoot -14.705369 -27.510943 -9.276162
RightToeBase -0.881219 -0.000000 0.000000
926
root -7.390455 33.125434 -6.462810 12.683049 15.170222 23.473807
Spine 18.709069 -15.351988 -31.395336
Head -38.373099 0.005985 14.780994
LeftShoulder 11.800289 -5.423012 13.188792
LeftArm 36.938465 -17.001502 -91.713255
LeftForeArm -74.129664 -0.000000 6.489605
LeftHand -32.319495 -0.000000 13.701715
LeftHandThumb1 -26.253704 0.000000 33.147579
RightShoulder -17.064366 18.776724 -31.567752
RightArm -11.103733 2.260947 32.295375
RightForeArm -21.222480 -0.000000 10.435201
RightHand -7.109552 -0.000000 11.304293
RightHandThumb1 -24.326973 -0.000000 -32.862282
LeftUpLeg -107.457116 30.085287 -27.563815
LeftLeg 111.948696 -0.000000 -0.000000
LeftFoot 17.066197 18.268105 -21.540578
LeftToeBase 8.139998 -0.000000 -0.000000
RightUpLeg -19.864166 -3.451289 -16.095375
RightLeg 30.573824 -0.000000 -0.000000
RightFoot -14.651783 -27.428415 -9.314635
RightToeBase -0.933271 -0.000000 0.000000
927
root -7.371096 33.125393 -6.455028 12.654623 15.015580 23.207476
Spine 18.477822 -15.237383 -31.140925
Head -38.163869 0.031061 14.641117
LeftShoulder 11.866062 -5.689569 13.188471
LeftArm 37.049202 -15.822823 -91.668214
LeftForeArm -72.611561 -0.000000 7.137409
LeftHand -32.917579 -0.000000 14.522313
LeftHandThumb1 -26.253704 0.000000 33.147579
RightShoulder -17.008682 18.718784 -31.586002
RightArm -11.146265 2.136750 32.406268
RightForeArm -21.172255 -0.000000 10.546556
RightHand -7.217480 -0.000000 11.219539
RightHandThumb1 -24.326973 -0.000000 -32.862282
LeftUpLeg -106.136677 30.307036 -27.409648
LeftLeg 111.544300 -0.000000 -0.000000
LeftFoot 16.762826 17.909408 -21.440782
LeftToeBase 7.286635 -0.000000 -0.000000
RightUpLeg -19.858746 -3.259477 -15.895709
RightLeg 30.376460 -0.000000 -0.000000
RightFoot -14.565263 -27.434856 -9.358500
RightToeBase -0.920538 -0.000000 0.000000
928
root -7.339556 33.126980 -6.457408 12.678196 15.023637 22.969729
Spine 18.274526 -15.309580 -30.795524
Head -37.937558 -0.015512 14.384348
LeftShoulder 11.893359 -5.973583 13.135817
LeftArm 37.165000 -14.415312 -91.436458
LeftForeArm -70.934108 -0.000000 7.589972
LeftHand -33.330322 -0.000000 14.381817
LeftHandThumb1 -26.253704 0.000000 33.147579
RightShoulder -16.915124 18.774157 -31.667769
RightArm -11.262966 2.043260 32.437889
RightForeArm -21.206202 -0.000000 10.637059
RightHand -7.255030 -0.000000 11.145619
RightHandThumb1 -24.326973 -0.000000 -32.862282
LeftUpLeg -104.717644 30.280843 -27.189576
LeftLeg 111.044273 -0.000000 -0.000000
LeftFoot 16.318371 17.704061 -21.556212
LeftToeBase 6.947771 -0.000000 -0.000000
RightUpLeg -19.846265 -3.358806 -15.711671
RightLeg 30.193752 -0.000000 -0.000000
RightFoot -14.422301 -27.391774 -9.519436
RightToeBase -1.103868 -0.000000 0.000000
929
root -7.310002 33.127980 -6.456234 12.683243 14.991413 22.711420
Spine 18.050251 -15.337301 -30.445450
Head -37.685761 0.004183 14.141244
LeftShoulder 11.918897 -6.149032 13.151273
LeftArm 37.443459 -12.947023 -91.195998
LeftForeArm -69.597410 0.000000 7.815081
LeftHand -33.235527 -0.000000 13.916841
LeftHandThumb1 -26.253704 0.000000 33.147579
RightShoulder -16.830201 18.681524 -31.714513
RightArm -11.298157 2.134023 32.499969
RightForeArm -21.310650 -0.000000 10.780495
RightHand -7.313690 -0.000000 11.060666
RightHandThumb1 -24.326973 -0.000000 -32.862282
LeftUpLeg -103.265593 30.322402 -26.945101
LeftLeg 110.493045 -0.000000 -0.000000
LeftFoot 15.894026 17.366918 -21.437269
LeftToeBase 6.629305 -0.000000 -0.000000
RightUpLeg -19.837853 -3.361813 -15.511176
RightLeg 29.993742 -0.000000 -0.000000
RightFoot -14.461248 -27.230232 -9.411521
RightToeBase -0.970522 -0.000000 0.000000
